<svg width="502" height="202" viewBox="0 0 502 202" fill="none" xmlns="http://www.w3.org/2000/svg">
<path d="M153.426 118.339V150.696H141.577C141.476 150.696 141.425 150.696 141.425 150.696C141.425 150.696 141.425 150.746 141.425 150.847V163H78.9916V150.847C78.9916 150.746 78.9916 150.696 78.9916 150.696C78.9916 150.696 78.941 150.696 78.8397 150.696H1.97479V106.187C5.72183 102.44 9.41823 98.6421 13.064 94.7938C16.811 90.9455 20.5074 87.1478 24.1532 83.4008C27.9002 79.5525 31.6473 75.7548 35.3943 72.0077C39.1414 68.1594 42.8378 64.3111 46.4835 60.4628C50.2306 56.6145 53.9776 52.8168 57.7246 49.0698H136.564C123.703 60.6147 110.841 72.1597 97.98 83.7046C85.1185 95.1482 72.2571 106.643 59.3956 118.187C59.3956 118.187 59.3956 118.238 59.3956 118.339C59.4969 118.339 59.5475 118.339 59.5475 118.339H78.6878C78.7891 118.339 78.8397 118.339 78.8397 118.339C78.8397 118.339 78.8397 118.289 78.8397 118.187C78.8397 115.251 78.7891 112.364 78.6878 109.529C78.6878 106.693 78.6878 103.858 78.6878 101.022L141.425 67.4505C141.425 76.1599 141.425 84.616 141.425 92.819C141.425 101.022 141.425 109.478 141.425 118.187C141.425 118.289 141.425 118.339 141.425 118.339C141.425 118.339 141.476 118.339 141.577 118.339H153.426Z" fill="white"/>
<path d="M500.426 118.339V150.696H488.577C488.476 150.696 488.425 150.696 488.425 150.696C488.425 150.696 488.425 150.746 488.425 150.847V163H425.992V150.847C425.992 150.746 425.992 150.696 425.992 150.696C425.992 150.696 425.941 150.696 425.84 150.696H348.975V106.187C352.722 102.44 356.418 98.6421 360.064 94.7938C363.811 90.9455 367.507 87.1478 371.153 83.4008C374.9 79.5525 378.647 75.7548 382.394 72.0077C386.141 68.1594 389.838 64.3111 393.484 60.4628C397.231 56.6145 400.978 52.8168 404.725 49.0698H483.564C470.703 60.6147 457.841 72.1597 444.98 83.7046C432.119 95.1482 419.257 106.643 406.396 118.187C406.396 118.187 406.396 118.238 406.396 118.339C406.497 118.339 406.548 118.339 406.548 118.339H425.688C425.789 118.339 425.84 118.339 425.84 118.339C425.84 118.339 425.84 118.289 425.84 118.187C425.84 115.251 425.789 112.364 425.688 109.529C425.688 106.693 425.688 103.858 425.688 101.022L488.425 67.4505C488.425 76.1599 488.425 84.616 488.425 92.819C488.425 101.022 488.425 109.478 488.425 118.187C488.425 118.289 488.425 118.339 488.425 118.339C488.425 118.339 488.476 118.339 488.577 118.339H500.426Z" fill="white"/>
<path d="M251 21C206.818 21 171 56.817 171 100.999C171 145.182 206.818 180.996 251 180.996C295.186 180.996 331 145.182 331 100.999C331 56.8199 295.186 21.0038 250.999 21.0038L251 21ZM287.687 136.381C286.254 138.731 283.178 139.476 280.828 138.034C262.045 126.56 238.399 123.962 210.552 130.324C207.869 130.936 205.194 129.254 204.583 126.57C203.968 123.886 205.643 121.211 208.333 120.599C238.807 113.634 264.947 116.635 286.034 129.522C288.384 130.964 289.129 134.031 287.687 136.381ZM297.479 114.595C295.673 117.533 291.833 118.46 288.9 116.654C267.396 103.434 234.617 99.6057 209.182 107.326C205.884 108.323 202.4 106.464 201.399 103.171C200.405 99.8723 202.265 96.395 205.558 95.3919C234.611 86.5764 270.73 90.8466 295.425 106.022C298.357 107.827 299.284 111.666 297.479 114.595ZM298.319 91.9127C272.536 76.5984 229.996 75.1902 205.379 82.6616C201.426 83.8605 197.246 81.6289 196.048 77.6759C194.85 73.721 197.08 69.5435 201.036 68.3417C229.294 59.7631 276.271 61.4206 305.956 79.043C309.519 81.1532 310.685 85.7453 308.573 89.2962C306.472 92.8518 301.867 94.0239 298.323 91.9127H298.319Z" fill="#1ED760"/>
</svg>
