<svg width="32" height="32" viewBox="0 0 32 32" fill="none" xmlns="http://www.w3.org/2000/svg">
<circle cx="16" cy="16" r="16" fill="#1ED760"/>
<path d="M17.4433 8H26C26 8.896 26 9.792 26 10.688C26 11.584 26 12.48 26 13.376C26 14.272 26 15.1751 26 16.0853C26 17.3938 26 18.7093 26 20.032C26 21.3547 26 22.6773 26 24H17.4433C17.4433 23.1324 17.4433 22.2649 17.4433 21.3973C17.4433 20.5298 17.4433 19.6622 17.4433 18.7947C17.4433 18.7804 17.4364 18.7733 17.4227 18.7733C17.4227 18.7591 17.4158 18.752 17.4021 18.752H14.5773C14.5636 18.752 14.5567 18.7591 14.5567 18.7733C14.5567 18.7733 14.5567 18.7804 14.5567 18.7947C14.5567 19.6622 14.5567 20.5298 14.5567 21.3973C14.5567 22.2649 14.5567 23.1324 14.5567 24H6C6 23.1467 6 22.2933 6 21.44C6 20.5867 6 19.7333 6 18.88C6 18.0267 6 17.1733 6 16.32C6 15.4667 6 14.6133 6 13.76C6 12.9067 6 12.0533 6 11.2C6 10.6596 6 10.1262 6 9.6C6 9.05956 6 8.52622 6 8H14.5567C14.5567 8.68267 14.5567 9.37244 14.5567 10.0693C14.5567 10.7662 14.5567 11.4631 14.5567 12.16C14.5567 12.8427 14.5567 13.5324 14.5567 14.2293C14.5567 14.2436 14.5567 14.2578 14.5567 14.272C14.5567 14.272 14.5636 14.272 14.5773 14.272H17.4021C17.4158 14.272 17.4227 14.272 17.4227 14.272C17.4364 14.2578 17.4433 14.2436 17.4433 14.2293C17.4433 13.1911 17.4433 12.1529 17.4433 11.1147C17.4433 10.0764 17.4433 9.03822 17.4433 8Z" fill="white"/>
</svg>
