<svg width="64" height="64" viewBox="0 0 64 64" fill="none" xmlns="http://www.w3.org/2000/svg">
<path d="M31.9998 0C14.3272 0 0 14.3268 0 31.9994C0 49.6728 14.3272 63.9985 31.9998 63.9985C49.6744 63.9985 64 49.6728 64 31.9994C64 14.3279 49.6744 0.00152847 31.9994 0.00152847L31.9998 0ZM46.6747 46.1524C46.1015 47.0924 44.8711 47.3904 43.9311 46.8134C36.4179 42.2242 26.9597 41.1848 15.8209 43.7297C14.7475 43.9743 13.6776 43.3017 13.433 42.228C13.1873 41.1542 13.8572 40.0843 14.9332 39.8397C27.1228 37.0537 37.5787 38.254 46.0136 43.4087C46.9537 43.9857 47.2517 45.2123 46.6747 46.1524ZM50.5914 37.4381C49.8692 38.6131 48.3331 38.9838 47.16 38.2616C38.5585 32.9734 25.4468 31.4423 15.2729 34.5306C13.9535 34.9291 12.5599 34.1855 12.1594 32.8684C11.762 31.5489 12.506 30.158 13.8232 29.7568C25.4446 26.2306 39.8921 27.9386 49.7699 34.0086C50.943 34.7308 51.3136 36.2666 50.5914 37.4381ZM50.9277 28.3651C40.6143 22.2393 23.5985 21.6761 13.7517 24.6646C12.1705 25.1442 10.4983 24.2516 10.0192 22.6704C9.53999 21.0884 10.4319 19.4174 12.0142 18.9367C23.3177 15.5053 42.1084 16.1682 53.9824 23.2172C55.4077 24.0613 55.8739 25.8981 55.0294 27.3185C54.1887 28.7407 52.3469 29.2096 50.9292 28.3651H50.9277Z" fill="#1ED760"/>
</svg>
